<svg width="912"  height="977" xmlns="http://www.w3.org/2000/svg" xmlns:xlink="http://www.w3.org/1999/xlink" overflow="hidden"><defs><clipPath id="clip0"><path d="M184-224 1096-224 1096 753 184 753Z" fill-rule="evenodd" clip-rule="evenodd"/></clipPath></defs><g clip-path="url(#clip0)" transform="translate(-184 224)"><path d="M186-179.524C489-330.608 790.686-27.1259 1095-179.524L1095-29.7534C790.686 121.331 487.686-179.524 186-29.7534L186-179.524Z" fill="#DD0203" fill-rule="evenodd"/><path d="M185-30.5241C488.333-181.608 790.352 121.874 1095-30.5241L1095 119.247C790.352 270.331 487.018-30.5241 185 119.247L185-30.5241Z" fill="#F78800" fill-rule="evenodd"/><path d="M185 116.476C488.333-34.6085 790.352 268.874 1095 116.476L1095 266.247C790.352 417.331 487.018 116.476 185 266.247L185 116.476Z" fill="#F7E600" fill-rule="evenodd"/><path d="M186 264.476C489 113.392 790.686 416.874 1095 264.476L1095 414.247C790.686 565.331 487.686 264.476 186 414.247L186 264.476Z" fill="#007C25" fill-rule="evenodd"/><path d="M185 411.476C488.333 260.392 790.352 563.874 1095 411.476L1095 561.247C790.352 712.331 487.018 411.476 185 561.247L185 411.476Z" fill="#004BF7" fill-rule="evenodd"/><path d="M185 558.659C488 406.937 789.686 711.701 1094 558.659L1094 709.062C789.686 860.784 486.686 558.659 185 709.062L185 558.659Z" fill="#710783" fill-rule="evenodd"/></g></svg>